<svg id="svg" version="1.1" xmlns="http://www.w3.org/2000/svg" xmlns:xlink="http://www.w3.org/1999/xlink" width="400" height="130.4" viewBox="0, 0, 400,130.4"><g id="svgg"><path id="path0" d="M276.583 31.324 C 272.325 31.753,265.308 34.688,262.669 37.144 C 262.508 37.294,262.051 37.679,261.653 38.000 C 260.747 38.731,258.770 40.706,258.000 41.649 C 257.679 42.042,257.339 42.450,257.244 42.557 C 257.053 42.771,255.751 44.758,255.205 45.667 C 251.471 51.892,250.399 60.681,252.504 67.833 C 253.240 70.335,253.269 70.412,254.653 73.372 C 255.027 74.172,255.333 74.868,255.333 74.918 C 255.333 74.968,255.969 75.947,256.746 77.092 C 258.830 80.164,261.393 82.622,264.418 84.451 C 265.586 85.157,266.876 85.833,267.056 85.833 C 267.172 85.833,267.338 85.903,267.425 85.989 C 267.669 86.229,270.968 87.417,273.171 88.059 C 275.430 88.716,281.800 89.293,282.065 88.863 C 282.117 88.779,282.705 88.657,283.371 88.592 C 286.168 88.318,291.968 86.655,294.083 85.521 C 296.122 84.426,302.966 78.306,304.167 76.504 C 304.304 76.297,304.539 75.968,304.688 75.772 C 305.007 75.353,305.997 73.533,306.837 71.822 C 307.501 70.469,308.478 67.502,308.604 66.457 C 308.649 66.081,308.800 65.356,308.939 64.845 C 309.289 63.562,309.439 58.425,309.177 56.717 C 308.952 55.253,308.934 55.146,308.767 54.333 C 308.701 54.012,308.626 53.637,308.600 53.500 C 308.499 52.971,308.300 52.233,308.149 51.831 C 308.063 51.601,307.957 51.217,307.913 50.978 C 307.746 50.054,304.970 44.362,304.511 44.000 C 304.453 43.954,304.059 43.429,303.636 42.833 C 301.426 39.723,297.450 36.234,294.333 34.670 C 293.921 34.463,293.246 34.124,292.833 33.917 C 288.458 31.725,282.320 30.746,276.583 31.324 M338.417 33.569 C 337.775 33.688,336.762 33.871,336.167 33.975 C 335.571 34.080,334.446 34.392,333.667 34.670 C 332.887 34.947,332.072 35.213,331.854 35.261 C 331.636 35.308,331.186 35.487,330.854 35.658 C 330.522 35.828,329.987 36.084,329.667 36.227 C 329.000 36.523,327.458 37.371,327.333 37.510 C 327.287 37.561,326.725 37.953,326.083 38.380 C 324.682 39.315,322.014 41.866,320.991 43.250 C 320.585 43.800,320.202 44.288,320.142 44.334 C 320.017 44.428,318.167 47.666,318.167 47.789 C 318.167 47.833,317.837 48.630,317.435 49.560 C 315.027 55.118,314.629 63.387,316.454 69.917 C 318.777 78.228,326.849 85.922,334.988 87.584 C 335.132 87.613,335.775 87.754,336.417 87.897 C 339.902 88.671,345.881 88.691,348.899 87.940 C 351.860 87.202,354.901 86.082,355.833 85.386 C 356.063 85.215,356.456 84.970,356.708 84.843 C 357.849 84.265,360.784 81.601,362.146 79.906 C 362.696 79.221,362.698 78.500,362.149 78.500 C 362.070 78.500,361.485 78.106,360.850 77.625 C 360.215 77.144,359.196 76.412,358.584 76.000 C 357.973 75.587,357.385 75.174,357.278 75.081 C 357.171 74.988,356.896 74.785,356.667 74.628 C 356.438 74.472,355.931 74.118,355.541 73.842 L 354.831 73.340 354.207 74.034 C 352.927 75.458,351.864 76.500,351.693 76.500 C 351.596 76.500,351.457 76.600,351.383 76.721 C 351.310 76.843,351.006 77.084,350.708 77.257 C 350.410 77.430,350.167 77.631,350.167 77.703 C 350.167 77.775,350.084 77.833,349.984 77.833 C 349.884 77.833,349.602 77.968,349.359 78.132 C 345.224 80.920,337.524 80.009,332.333 76.118 C 331.029 75.140,331.101 75.209,329.903 73.796 C 328.830 72.531,328.533 72.057,327.381 69.778 C 324.686 64.443,324.741 56.147,327.503 51.500 C 327.585 51.362,327.890 50.839,328.182 50.337 C 330.019 47.175,333.945 43.876,336.734 43.153 C 337.018 43.079,337.587 42.909,338.000 42.776 C 343.502 40.992,349.829 42.625,353.558 46.792 C 354.090 47.386,354.254 47.296,358.417 44.126 C 359.058 43.637,359.975 42.977,360.454 42.660 C 361.588 41.909,361.571 41.665,360.291 40.331 C 359.248 39.244,356.636 37.055,356.167 36.875 C 356.029 36.822,355.696 36.626,355.426 36.438 C 351.992 34.055,343.518 32.626,338.417 33.569 M66.167 34.254 C 65.479 34.389,64.654 34.540,64.333 34.590 C 61.429 35.046,57.359 37.159,55.212 39.324 C 54.087 40.459,52.500 42.603,52.500 42.988 C 52.500 43.071,52.442 43.164,52.372 43.194 C 52.148 43.291,51.372 45.537,51.143 46.750 C 50.636 49.439,50.991 53.872,51.871 55.833 C 52.629 57.522,55.647 61.167,56.288 61.167 C 56.376 61.167,56.584 61.317,56.750 61.500 C 56.916 61.683,57.107 61.833,57.175 61.833 C 57.244 61.833,57.776 62.117,58.358 62.463 C 59.695 63.259,61.274 63.881,64.833 65.015 C 68.726 66.254,71.955 67.606,72.637 68.282 C 72.758 68.402,72.908 68.501,72.970 68.502 C 73.165 68.506,74.543 69.851,74.918 70.403 C 75.753 71.634,75.917 75.279,75.169 76.000 C 75.122 76.046,74.982 76.279,74.859 76.519 C 73.023 80.087,66.452 81.470,61.577 79.313 C 60.221 78.713,57.333 76.527,57.333 76.101 C 57.333 76.035,57.114 75.747,56.846 75.460 L 56.358 74.939 55.637 75.581 C 55.001 76.148,54.015 77.100,50.151 80.880 C 48.956 82.050,48.955 81.878,50.163 83.109 C 52.043 85.025,54.371 86.573,56.583 87.381 C 56.950 87.515,57.663 87.781,58.167 87.973 C 58.671 88.165,59.346 88.364,59.667 88.415 C 59.987 88.466,60.813 88.637,61.500 88.796 C 63.341 89.219,69.918 89.205,71.583 88.774 C 72.225 88.607,72.975 88.435,73.250 88.391 C 73.686 88.321,75.388 87.706,76.155 87.341 C 82.612 84.269,85.833 79.264,85.833 72.301 C 85.833 70.019,84.941 65.836,84.348 65.333 C 84.293 65.287,84.024 64.914,83.750 64.503 C 82.640 62.844,81.520 61.717,79.827 60.553 C 79.107 60.058,76.297 58.530,76.039 58.493 C 75.972 58.484,75.692 58.377,75.417 58.256 C 75.142 58.135,74.242 57.831,73.417 57.581 C 72.592 57.331,71.485 56.986,70.958 56.813 C 70.430 56.641,69.920 56.500,69.825 56.500 C 69.729 56.500,69.340 56.350,68.961 56.167 C 68.581 55.983,68.209 55.833,68.134 55.833 C 67.969 55.833,66.651 55.257,65.811 54.817 C 65.477 54.643,65.122 54.500,65.021 54.500 C 64.650 54.500,62.540 53.019,62.032 52.403 C 60.749 50.847,60.645 47.991,61.804 46.128 C 62.241 45.423,63.956 43.833,64.278 43.833 C 64.395 43.833,64.736 43.695,65.037 43.526 C 65.611 43.204,66.758 42.933,68.417 42.728 C 69.324 42.616,69.652 42.615,70.333 42.727 C 70.654 42.780,71.433 42.909,72.065 43.014 C 74.521 43.422,77.063 44.851,78.046 46.375 C 78.427 46.967,78.506 46.955,79.223 46.208 C 79.867 45.536,80.886 44.470,83.708 41.511 C 84.694 40.478,85.500 39.581,85.500 39.517 C 85.500 39.276,83.503 37.595,82.833 37.271 C 82.696 37.205,82.283 36.967,81.917 36.743 C 80.357 35.788,77.778 34.810,76.234 34.589 C 75.859 34.536,75.297 34.410,74.984 34.311 C 74.039 34.010,67.629 33.969,66.167 34.254 M197.333 60.924 L 197.333 87.181 208.958 87.126 C 221.322 87.068,221.152 87.078,224.417 86.220 C 224.967 86.076,225.679 85.898,226.000 85.825 C 233.345 84.159,240.915 77.188,243.457 69.750 C 245.189 64.679,245.219 57.426,243.530 51.750 C 242.893 49.607,240.625 45.227,239.733 44.417 C 239.632 44.325,239.351 43.980,239.107 43.650 C 237.555 41.544,234.117 38.839,231.500 37.665 C 230.996 37.439,230.546 37.208,230.500 37.152 C 230.361 36.982,227.667 36.051,226.250 35.683 C 222.640 34.746,221.289 34.667,208.846 34.667 L 197.333 34.667 197.333 60.924 M102.375 35.294 L 97.667 35.339 97.667 61.586 L 97.667 87.833 102.500 87.833 L 107.333 87.833 107.333 75.000 C 107.333 66.556,107.390 62.167,107.500 62.167 C 107.592 62.167,107.668 62.223,107.670 62.292 C 107.672 62.360,108.066 62.834,108.545 63.343 C 109.024 63.853,109.754 64.670,110.167 65.160 C 110.932 66.068,112.048 67.334,113.921 69.417 C 114.498 70.058,115.258 70.922,115.610 71.335 C 115.962 71.748,116.400 72.240,116.583 72.427 C 116.767 72.614,117.268 73.176,117.698 73.675 C 118.127 74.175,118.652 74.781,118.864 75.023 C 120.305 76.667,121.181 77.657,121.833 78.381 C 122.246 78.838,122.715 79.371,122.876 79.565 C 123.037 79.758,123.340 80.104,123.550 80.333 C 123.760 80.563,124.453 81.349,125.091 82.081 C 125.728 82.813,126.325 83.494,126.417 83.594 C 126.508 83.694,127.033 84.289,127.583 84.917 C 128.133 85.545,128.789 86.273,129.041 86.535 C 129.293 86.797,129.621 87.196,129.769 87.422 L 130.038 87.833 136.741 87.833 C 140.428 87.833,143.494 87.784,143.555 87.723 C 143.616 87.662,143.272 87.192,142.791 86.678 C 142.310 86.164,141.290 85.070,140.524 84.247 C 139.759 83.424,138.559 82.144,137.858 81.404 C 137.157 80.663,135.946 79.355,135.167 78.496 C 133.956 77.162,132.686 75.789,130.468 73.417 C 129.965 72.879,129.160 72.008,127.600 70.317 C 127.059 69.730,126.127 68.725,125.529 68.083 C 124.223 66.683,123.028 65.393,120.583 62.745 C 119.575 61.653,118.506 60.518,118.208 60.224 C 117.565 59.588,117.558 59.548,118.042 59.136 C 118.398 58.833,131.823 45.595,138.775 38.692 C 140.561 36.918,141.990 35.435,141.951 35.396 C 141.912 35.357,138.981 35.325,135.437 35.325 L 128.993 35.325 127.455 36.926 C 126.609 37.806,124.717 39.749,123.250 41.244 C 121.783 42.739,118.633 45.963,116.250 48.409 C 113.867 50.855,110.904 53.875,109.667 55.121 L 107.417 57.385 107.374 46.408 C 107.350 40.371,107.275 35.390,107.207 35.340 C 107.139 35.291,104.965 35.270,102.375 35.294 M144.049 35.447 C 143.987 35.608,144.490 36.495,144.835 36.833 C 144.921 36.918,145.774 38.192,146.081 38.694 C 146.852 39.957,147.579 41.098,147.657 41.167 C 147.709 41.212,147.944 41.550,148.180 41.917 C 148.416 42.283,149.204 43.487,149.930 44.591 C 150.656 45.695,151.325 46.715,151.417 46.859 C 151.508 47.002,151.705 47.299,151.853 47.518 C 152.133 47.931,153.622 50.191,153.919 50.654 C 154.011 50.798,154.230 51.142,154.405 51.417 C 155.258 52.762,156.415 54.423,156.534 54.472 C 156.607 54.503,156.667 54.600,156.667 54.689 C 156.667 54.777,157.117 55.523,157.667 56.347 C 158.217 57.170,158.667 57.911,158.667 57.992 C 158.667 58.073,158.723 58.164,158.792 58.194 C 158.932 58.257,160.000 59.756,160.000 59.891 C 160.000 59.938,160.825 61.201,161.833 62.697 L 163.667 65.416 163.667 76.627 L 163.667 87.838 168.458 87.794 L 173.250 87.750 173.293 76.536 L 173.336 65.323 173.791 64.620 C 174.042 64.233,174.341 63.857,174.457 63.783 C 174.572 63.710,174.667 63.577,174.667 63.488 C 174.667 63.327,175.487 61.992,175.684 61.833 C 175.740 61.788,175.912 61.525,176.065 61.250 C 176.218 60.975,176.472 60.558,176.630 60.324 C 176.788 60.090,177.378 59.190,177.941 58.324 C 178.505 57.458,179.354 56.188,179.828 55.500 C 180.538 54.471,182.019 52.250,183.333 50.244 C 183.471 50.034,183.837 49.425,184.146 48.890 C 184.455 48.355,184.814 47.804,184.943 47.667 C 185.200 47.394,187.333 44.169,187.333 44.054 C 187.333 43.957,188.723 41.937,188.863 41.831 C 188.925 41.784,189.264 41.259,189.616 40.664 C 190.306 39.501,192.186 36.637,192.350 36.500 C 192.525 36.354,192.833 35.697,192.833 35.469 C 192.833 35.280,187.729 35.218,181.458 35.331 C 181.390 35.332,181.333 35.412,181.333 35.509 C 181.333 35.606,181.033 36.127,180.667 36.667 C 180.300 37.207,180.000 37.727,180.000 37.824 C 180.000 37.921,179.925 38.000,179.833 38.000 C 179.742 38.000,179.667 38.074,179.667 38.164 C 179.667 38.343,178.671 40.032,178.486 40.167 C 178.372 40.250,177.928 40.964,177.398 41.917 C 177.245 42.192,176.568 43.258,175.893 44.287 C 175.219 45.315,174.667 46.207,174.667 46.268 C 174.667 46.329,174.244 47.025,173.728 47.815 C 173.211 48.604,172.623 49.512,172.421 49.833 C 172.219 50.154,171.911 50.642,171.737 50.917 C 171.200 51.765,171.021 52.068,170.800 52.500 C 170.683 52.729,170.493 53.015,170.378 53.136 C 170.263 53.257,169.865 53.875,169.494 54.511 C 168.799 55.701,168.568 55.880,168.382 55.375 C 168.323 55.215,168.231 55.046,168.179 55.000 C 168.059 54.895,167.833 54.528,167.053 53.167 C 166.711 52.571,166.193 51.746,165.902 51.333 C 165.611 50.921,165.136 50.171,164.846 49.667 C 164.235 48.605,164.194 48.537,163.071 46.758 C 162.605 46.020,161.972 44.967,161.662 44.417 C 161.353 43.867,160.871 43.079,160.592 42.667 C 160.006 41.803,159.814 41.497,159.293 40.602 C 158.728 39.631,158.636 39.483,157.966 38.478 C 157.627 37.968,157.259 37.352,157.148 37.109 C 157.037 36.866,156.884 36.667,156.807 36.667 C 156.730 36.667,156.667 36.584,156.667 36.484 C 156.667 36.384,156.513 36.085,156.325 35.822 L 155.983 35.342 150.054 35.296 C 145.611 35.261,144.105 35.299,144.049 35.447 M296.035 37.166 C 296.005 37.294,296.087 37.335,296.249 37.273 C 296.403 37.214,296.552 37.275,296.607 37.419 C 296.660 37.555,296.780 37.667,296.874 37.667 C 297.497 37.667,301.104 41.223,302.871 43.581 C 308.183 50.666,309.835 62.084,306.587 69.269 C 306.343 69.808,305.906 70.775,305.616 71.417 C 304.872 73.062,303.672 75.175,303.428 75.269 C 303.315 75.312,303.222 75.566,303.222 75.833 C 303.222 77.655,297.623 82.711,292.971 85.091 C 289.186 87.027,282.268 88.640,280.833 87.921 C 280.604 87.806,279.479 87.667,278.333 87.611 C 265.230 86.973,254.083 76.006,252.979 62.667 C 252.759 60.010,252.835 59.709,253.862 59.165 C 254.259 58.955,254.771 58.682,255.000 58.559 C 255.229 58.436,255.513 58.335,255.630 58.334 C 255.748 58.334,255.887 58.221,255.940 58.083 C 255.992 57.946,256.211 57.833,256.426 57.833 C 256.641 57.833,256.877 57.735,256.950 57.615 C 257.023 57.495,257.383 57.247,257.750 57.063 C 259.672 56.101,260.926 55.431,261.000 55.328 C 261.046 55.264,261.267 55.154,261.492 55.084 C 261.717 55.014,262.004 54.853,262.129 54.728 C 262.255 54.603,262.461 54.500,262.588 54.500 C 262.715 54.500,263.095 54.313,263.433 54.083 C 263.770 53.854,264.139 53.667,264.253 53.667 C 264.366 53.667,264.553 53.554,264.667 53.417 C 264.781 53.279,265.001 53.167,265.156 53.167 C 265.310 53.167,265.598 53.017,265.795 52.833 C 265.992 52.650,266.264 52.500,266.400 52.500 C 266.536 52.500,266.694 52.424,266.751 52.332 C 266.880 52.123,268.151 51.500,268.448 51.500 C 268.568 51.500,268.667 51.425,268.667 51.333 C 268.667 51.242,268.785 51.167,268.929 51.167 C 269.073 51.167,269.306 51.051,269.448 50.909 C 269.681 50.677,269.780 50.726,270.459 51.415 C 270.873 51.835,271.345 52.250,271.507 52.337 C 271.669 52.424,271.370 52.064,270.844 51.537 C 267.574 48.267,269.628 42.841,274.250 42.542 C 277.232 42.350,279.540 44.429,279.846 47.583 L 279.975 48.917 279.918 47.500 C 279.887 46.721,279.809 45.915,279.745 45.708 C 279.656 45.425,279.694 45.333,279.899 45.333 C 280.049 45.333,280.301 45.267,280.461 45.186 C 280.620 45.105,280.975 44.939,281.250 44.817 C 281.525 44.695,281.949 44.461,282.192 44.298 C 282.436 44.134,282.736 43.999,282.859 43.997 C 282.982 43.996,283.271 43.796,283.500 43.554 C 283.729 43.311,284.292 42.940,284.750 42.729 C 285.208 42.518,286.071 42.068,286.667 41.730 C 287.262 41.392,288.100 40.942,288.528 40.731 C 288.956 40.519,289.347 40.279,289.397 40.198 C 289.447 40.117,289.714 40.045,289.989 40.037 C 290.264 40.029,290.586 39.940,290.703 39.839 C 290.821 39.739,291.174 39.434,291.488 39.162 C 291.818 38.876,292.251 38.667,292.510 38.667 C 292.757 38.667,293.400 38.400,293.938 38.074 C 294.476 37.748,295.123 37.438,295.375 37.386 C 295.627 37.334,295.833 37.222,295.833 37.136 C 295.833 37.050,295.747 37.034,295.641 37.099 C 295.519 37.175,295.494 37.145,295.573 37.017 C 295.729 36.765,296.100 36.885,296.035 37.166 M220.500 43.823 C 221.371 44.018,222.387 44.245,222.758 44.328 C 224.202 44.648,227.570 46.148,228.374 46.829 C 228.489 46.926,228.771 47.159,229.000 47.346 C 231.671 49.523,233.388 52.349,234.259 56.000 C 234.747 58.044,234.797 63.006,234.348 64.893 C 234.157 65.700,234.000 66.467,234.000 66.598 C 234.000 68.462,230.581 73.006,227.715 74.951 C 226.162 76.005,222.360 77.452,220.333 77.760 C 219.921 77.822,219.396 77.911,219.167 77.956 C 218.938 78.002,218.637 78.040,218.500 78.042 C 218.362 78.044,218.145 78.129,218.017 78.230 C 217.861 78.354,216.002 78.435,212.392 78.476 L 207.000 78.537 207.000 60.919 L 207.000 43.302 212.958 43.385 C 218.236 43.459,219.098 43.509,220.500 43.823 M279.476 49.755 C 279.330 50.161,279.270 50.456,279.343 50.411 C 279.500 50.314,279.895 49.173,279.804 49.081 C 279.769 49.047,279.621 49.350,279.476 49.755 M278.462 51.443 C 278.202 51.703,278.435 52.667,278.759 52.667 C 278.804 52.667,278.732 52.454,278.597 52.193 C 278.377 51.769,278.381 51.691,278.628 51.443 C 278.780 51.291,278.867 51.167,278.821 51.167 C 278.776 51.167,278.614 51.291,278.462 51.443 M275.917 53.833 C 276.059 54.108,276.213 54.333,276.259 54.333 C 276.304 54.333,276.226 54.108,276.083 53.833 C 275.941 53.558,275.787 53.333,275.741 53.333 C 275.696 53.333,275.774 53.558,275.917 53.833 M278.500 65.750 C 278.095 66.162,277.801 66.500,277.847 66.500 C 277.893 66.500,278.262 66.162,278.667 65.750 C 279.072 65.337,279.365 65.000,279.319 65.000 C 279.274 65.000,278.905 65.337,278.500 65.750 M274.375 75.250 C 274.377 75.617,274.411 75.747,274.451 75.540 C 274.491 75.332,274.490 75.032,274.448 74.873 C 274.406 74.714,274.374 74.883,274.375 75.250 M274.375 76.583 C 274.377 76.950,274.411 77.080,274.451 76.873 C 274.491 76.666,274.490 76.366,274.448 76.206 C 274.406 76.047,274.374 76.217,274.375 76.583 " stroke="none" fill="#1372d9" fill-rule="evenodd"></path><path id="path1" d="M100.135 35.291 C 101.447 35.320,103.547 35.319,104.802 35.291 C 106.057 35.263,104.983 35.240,102.417 35.240 C 99.850 35.240,98.823 35.263,100.135 35.291 M132.375 35.291 C 134.094 35.319,136.906 35.319,138.625 35.291 C 140.344 35.264,138.938 35.242,135.500 35.242 C 132.063 35.242,130.656 35.264,132.375 35.291 M147.114 35.291 C 148.690 35.319,151.315 35.319,152.948 35.291 C 154.581 35.264,153.292 35.242,150.083 35.242 C 146.875 35.242,145.539 35.264,147.114 35.291 M184.552 35.291 C 186.093 35.319,188.568 35.319,190.052 35.291 C 191.536 35.264,190.275 35.241,187.250 35.241 C 184.225 35.241,183.011 35.264,184.552 35.291 M272.833 42.775 C 267.185 44.725,268.628 53.037,274.622 53.076 L 275.662 53.083 278.372 58.157 C 281.600 64.197,281.380 63.498,280.301 64.299 C 272.939 69.773,272.457 80.401,279.286 86.664 C 280.889 88.133,280.954 88.157,282.858 87.981 C 290.366 87.287,297.372 83.592,302.074 77.845 C 303.299 76.347,303.334 76.223,303.078 74.243 C 301.941 65.466,293.393 59.639,285.089 61.981 C 283.647 62.388,283.981 62.717,282.024 58.956 C 281.106 57.193,279.876 54.853,279.289 53.756 L 278.224 51.761 278.762 51.056 C 281.902 46.943,277.712 41.091,272.833 42.775 M295.281 67.991 C 296.511 68.549,297.246 70.166,296.836 71.410 C 295.888 74.281,291.993 74.174,291.189 71.255 C 290.551 68.938,293.023 66.965,295.281 67.991 M282.628 73.925 C 283.865 74.441,284.538 75.410,284.538 76.671 C 284.538 79.357,281.340 80.547,279.473 78.557 C 277.485 76.437,279.957 72.809,282.628 73.925 M301.607 79.273 C 300.677 80.249,298.848 81.904,297.542 82.952 C 296.235 84.000,295.167 84.899,295.167 84.949 C 295.167 85.000,295.260 84.966,295.375 84.875 C 295.490 84.784,296.400 84.278,297.398 83.751 C 298.395 83.223,299.402 82.632,299.633 82.438 C 299.865 82.243,300.407 81.783,300.838 81.417 C 301.268 81.050,301.929 80.491,302.305 80.175 C 303.075 79.528,303.143 79.403,303.322 78.292 C 303.488 77.264,303.563 77.221,301.607 79.273 M289.833 87.096 C 287.650 87.861,285.381 88.389,283.417 88.589 C 282.110 88.722,281.861 88.809,282.191 89.018 C 282.684 89.331,285.044 89.173,286.250 88.747 C 286.892 88.520,287.754 88.334,288.167 88.332 C 289.000 88.330,290.088 87.875,291.496 86.939 C 292.653 86.171,292.408 86.194,289.833 87.096 " stroke="none" fill="#fafafa" fill-rule="evenodd"></path><path id="path2" d="M306.656 51.417 C 306.640 51.600,306.634 51.799,306.641 51.858 C 306.649 51.918,306.464 52.015,306.231 52.073 C 305.997 52.132,305.516 52.363,305.161 52.587 C 304.806 52.811,304.044 53.245,303.466 53.552 C 302.889 53.859,302.267 54.190,302.083 54.288 C 301.900 54.386,301.378 54.643,300.923 54.858 C 300.468 55.074,299.948 55.381,299.767 55.542 C 299.585 55.702,299.268 55.833,299.062 55.833 C 298.855 55.833,298.644 55.901,298.593 55.984 C 298.469 56.185,297.051 56.984,294.417 58.339 C 293.225 58.951,291.950 59.626,291.583 59.839 C 291.217 60.051,290.429 60.474,289.833 60.779 L 288.750 61.332 289.677 61.333 C 295.914 61.336,302.225 67.196,303.145 73.841 C 303.236 74.496,303.345 75.067,303.387 75.109 C 303.610 75.332,305.382 71.905,306.245 69.583 C 306.586 68.667,306.960 67.804,307.075 67.667 C 308.084 66.468,308.478 58.055,307.692 54.500 C 307.263 52.562,306.701 50.888,306.656 51.417 M276.426 67.819 C 276.374 67.903,275.713 68.285,274.957 68.669 C 274.202 69.054,273.500 69.473,273.398 69.601 C 273.297 69.729,273.121 69.833,273.007 69.833 C 272.894 69.833,272.602 69.971,272.359 70.139 C 272.116 70.307,271.054 70.879,270.000 71.411 C 267.255 72.794,266.316 73.300,266.015 73.555 C 265.869 73.679,265.327 73.947,264.811 74.152 C 264.294 74.356,263.716 74.668,263.526 74.845 C 263.336 75.022,263.033 75.167,262.852 75.167 C 262.671 75.167,262.072 75.467,261.520 75.833 C 260.968 76.200,260.419 76.502,260.300 76.505 C 259.738 76.519,259.124 77.327,259.381 77.714 C 262.510 82.426,270.470 86.711,277.535 87.489 C 280.455 87.810,280.400 87.845,279.012 86.560 C 274.187 82.093,272.905 75.179,275.806 69.272 C 276.502 67.855,276.721 67.341,276.426 67.819 M292.664 68.142 C 291.022 69.014,290.723 71.256,292.068 72.602 C 294.003 74.536,297.223 72.798,296.778 70.059 C 296.493 68.303,294.292 67.277,292.664 68.142 M280.349 74.180 C 277.442 75.953,279.347 80.401,282.560 79.341 C 285.498 78.371,284.762 73.835,281.667 73.835 C 281.201 73.835,280.702 73.966,280.349 74.180 " stroke="none" fill="#07203e" fill-rule="evenodd"></path><path id="path3" d="M295.573 37.017 C 295.494 37.145,295.519 37.175,295.641 37.099 C 295.747 37.034,295.833 37.050,295.833 37.136 C 295.833 37.222,295.627 37.334,295.375 37.386 C 295.123 37.438,294.476 37.748,293.938 38.074 C 293.400 38.400,292.757 38.667,292.510 38.667 C 292.251 38.667,291.818 38.876,291.488 39.162 C 291.174 39.434,290.821 39.739,290.703 39.839 C 290.586 39.940,290.264 40.029,289.989 40.037 C 289.714 40.045,289.447 40.117,289.397 40.198 C 289.347 40.279,288.956 40.519,288.528 40.731 C 288.100 40.942,287.262 41.392,286.667 41.730 C 286.071 42.068,285.208 42.518,284.750 42.729 C 284.292 42.940,283.729 43.311,283.500 43.554 C 283.271 43.796,282.982 43.996,282.859 43.997 C 282.736 43.999,282.436 44.134,282.192 44.298 C 281.949 44.461,281.525 44.695,281.250 44.817 C 280.975 44.939,280.620 45.105,280.461 45.186 C 280.301 45.267,280.049 45.333,279.899 45.333 C 279.695 45.333,279.656 45.426,279.743 45.708 C 280.271 47.434,279.928 49.682,278.935 51.000 L 278.371 51.750 280.042 55.000 C 280.961 56.788,281.786 58.325,281.875 58.417 C 281.964 58.508,281.873 58.258,281.674 57.860 C 281.325 57.165,281.323 57.127,281.614 56.911 C 282.006 56.619,283.547 55.833,283.727 55.833 C 283.803 55.833,284.101 55.665,284.389 55.458 C 284.975 55.038,286.102 54.500,286.395 54.500 C 286.500 54.500,286.680 54.350,286.795 54.167 C 286.909 53.983,287.122 53.833,287.267 53.833 C 287.413 53.833,287.731 53.694,287.974 53.523 C 288.218 53.352,289.092 52.871,289.917 52.454 C 292.480 51.157,293.247 50.753,293.333 50.653 C 293.379 50.600,293.849 50.347,294.378 50.091 C 294.907 49.834,295.377 49.565,295.422 49.492 C 295.467 49.419,295.747 49.306,296.044 49.242 C 296.340 49.177,296.621 49.078,296.667 49.021 C 296.886 48.747,297.813 48.199,298.362 48.018 C 298.698 47.907,299.064 47.708,299.174 47.575 C 299.284 47.442,299.515 47.333,299.687 47.333 C 299.859 47.333,300.133 47.202,300.295 47.042 C 300.682 46.658,303.171 45.442,303.528 45.462 C 303.681 45.470,303.849 45.366,303.901 45.230 C 303.955 45.091,303.924 45.027,303.831 45.085 C 303.741 45.141,303.667 45.107,303.667 45.010 C 303.667 44.913,303.665 44.798,303.662 44.754 C 303.660 44.710,303.473 44.474,303.246 44.230 C 303.019 43.985,302.833 43.715,302.833 43.630 C 302.833 43.546,302.740 43.381,302.625 43.264 C 302.510 43.147,302.154 42.722,301.833 42.319 C 300.538 40.691,297.304 37.667,296.858 37.667 C 296.753 37.667,296.667 37.592,296.667 37.500 C 296.667 37.408,296.517 37.333,296.333 37.333 C 296.150 37.333,296.019 37.249,296.042 37.146 C 296.101 36.880,295.722 36.776,295.573 37.017 M269.448 50.909 C 269.306 51.051,269.073 51.167,268.929 51.167 C 268.785 51.167,268.667 51.242,268.667 51.333 C 268.667 51.425,268.568 51.500,268.448 51.500 C 268.151 51.500,266.880 52.123,266.751 52.332 C 266.694 52.424,266.536 52.500,266.400 52.500 C 266.264 52.500,265.992 52.650,265.795 52.833 C 265.598 53.017,265.310 53.167,265.156 53.167 C 265.001 53.167,264.781 53.279,264.667 53.417 C 264.553 53.554,264.366 53.667,264.253 53.667 C 264.139 53.667,263.770 53.854,263.433 54.083 C 263.095 54.313,262.715 54.500,262.588 54.500 C 262.461 54.500,262.255 54.603,262.129 54.728 C 262.004 54.853,261.717 55.014,261.492 55.084 C 261.267 55.154,261.046 55.264,261.000 55.328 C 260.926 55.431,259.672 56.101,257.750 57.063 C 257.383 57.247,257.023 57.495,256.950 57.615 C 256.877 57.735,256.641 57.833,256.426 57.833 C 256.211 57.833,255.992 57.946,255.940 58.083 C 255.887 58.221,255.748 58.334,255.630 58.334 C 255.513 58.335,255.229 58.436,255.000 58.559 C 254.771 58.682,254.259 58.955,253.862 59.165 C 252.835 59.709,252.759 60.010,252.979 62.667 C 253.326 66.851,255.230 72.544,257.078 74.917 C 257.220 75.100,256.886 74.381,256.335 73.318 C 255.172 71.075,255.157 70.989,255.875 70.685 C 256.173 70.559,256.492 70.372,256.583 70.270 C 256.675 70.167,257.632 69.643,258.711 69.105 C 259.789 68.567,260.712 68.061,260.762 67.980 C 260.812 67.899,260.981 67.833,261.138 67.833 C 261.295 67.833,261.872 67.535,262.420 67.171 C 262.968 66.807,263.548 66.507,263.708 66.505 C 263.869 66.502,264.001 66.444,264.001 66.375 C 264.002 66.306,264.508 65.998,265.126 65.690 C 265.744 65.382,266.438 65.027,266.667 64.901 C 266.896 64.775,267.346 64.550,267.667 64.401 C 267.987 64.251,268.454 63.984,268.702 63.807 C 269.216 63.442,271.348 62.341,271.550 62.336 C 271.623 62.335,272.093 62.071,272.595 61.750 C 273.096 61.429,273.587 61.167,273.686 61.167 C 273.784 61.167,274.064 61.026,274.308 60.855 C 274.551 60.683,275.162 60.336,275.667 60.083 C 276.171 59.830,276.621 59.577,276.667 59.520 C 276.712 59.463,277.109 59.248,277.547 59.041 L 278.344 58.666 278.688 59.250 C 279.232 60.170,279.252 59.930,278.713 58.958 C 278.446 58.477,277.637 56.986,276.916 55.644 L 275.604 53.205 274.260 53.131 C 272.642 53.042,271.599 52.571,270.464 51.420 C 269.780 50.727,269.681 50.677,269.448 50.909 M279.583 60.833 C 279.726 61.108,279.879 61.333,279.925 61.333 C 279.971 61.333,279.892 61.108,279.750 60.833 C 279.608 60.558,279.454 60.333,279.408 60.333 C 279.362 60.333,279.441 60.558,279.583 60.833 M288.208 61.455 C 288.552 61.491,289.115 61.491,289.458 61.455 C 289.802 61.419,289.521 61.389,288.833 61.389 C 288.146 61.389,287.865 61.419,288.208 61.455 M306.732 68.435 C 306.594 68.765,306.520 69.076,306.569 69.124 C 306.646 69.201,306.762 68.956,307.083 68.042 C 307.253 67.558,306.962 67.884,306.732 68.435 M257.833 76.083 C 258.117 76.496,258.387 76.833,258.433 76.833 C 258.479 76.833,258.284 76.496,258.000 76.083 C 257.716 75.671,257.446 75.333,257.401 75.333 C 257.355 75.333,257.550 75.671,257.833 76.083 M259.833 78.583 C 260.144 78.904,260.436 79.167,260.482 79.167 C 260.528 79.167,260.311 78.904,260.000 78.583 C 259.689 78.262,259.397 78.000,259.351 78.000 C 259.305 78.000,259.522 78.262,259.833 78.583 M261.500 80.219 C 261.500 80.248,261.744 80.491,262.042 80.760 L 262.583 81.250 262.094 80.708 C 261.638 80.203,261.500 80.090,261.500 80.219 M278.493 86.042 C 279.184 86.778,279.333 86.910,279.333 86.785 C 279.333 86.758,278.977 86.402,278.542 85.993 L 277.750 85.250 278.493 86.042 " stroke="none" fill="#0c4586" fill-rule="evenodd"></path><path id="path4" d="M303.650 44.969 C 303.895 45.427,303.883 45.482,303.542 45.463 C 303.175 45.442,300.690 46.650,300.295 47.042 C 300.133 47.202,299.859 47.333,299.687 47.333 C 299.515 47.333,299.284 47.442,299.174 47.575 C 299.064 47.708,298.698 47.907,298.362 48.018 C 297.813 48.199,296.886 48.747,296.667 49.021 C 296.621 49.078,296.340 49.177,296.044 49.242 C 295.747 49.306,295.467 49.419,295.422 49.492 C 295.377 49.565,294.907 49.834,294.378 50.091 C 293.849 50.347,293.379 50.600,293.333 50.653 C 293.247 50.753,292.480 51.157,289.917 52.454 C 289.092 52.871,288.218 53.352,287.974 53.523 C 287.731 53.694,287.413 53.833,287.267 53.833 C 287.122 53.833,286.909 53.983,286.795 54.167 C 286.680 54.350,286.500 54.500,286.395 54.500 C 286.102 54.500,284.975 55.038,284.389 55.458 C 284.101 55.665,283.803 55.833,283.727 55.833 C 283.547 55.833,282.006 56.619,281.616 56.910 C 281.333 57.120,283.558 62.167,283.934 62.167 C 283.988 62.167,284.419 62.055,284.891 61.919 C 285.737 61.674,287.358 61.379,288.500 61.260 C 289.038 61.205,289.866 60.822,291.583 59.835 C 291.950 59.625,293.225 58.951,294.417 58.339 C 297.051 56.984,298.469 56.185,298.593 55.984 C 298.644 55.901,298.855 55.833,299.062 55.833 C 299.268 55.833,299.585 55.702,299.767 55.542 C 299.948 55.381,300.468 55.074,300.923 54.858 C 301.378 54.643,301.900 54.386,302.083 54.288 C 302.267 54.190,302.889 53.859,303.466 53.552 C 304.044 53.245,304.806 52.811,305.161 52.587 C 305.516 52.363,306.003 52.130,306.244 52.070 C 306.485 52.009,306.646 51.924,306.602 51.880 C 306.557 51.835,306.590 51.619,306.673 51.400 C 306.757 51.180,306.760 51.000,306.681 51.000 C 306.602 51.000,306.485 50.719,306.420 50.375 C 306.356 50.031,306.246 49.675,306.176 49.583 C 306.107 49.492,305.797 48.854,305.488 48.167 C 305.179 47.479,304.887 46.879,304.838 46.833 C 304.790 46.788,304.525 46.312,304.250 45.777 C 303.975 45.242,303.686 44.764,303.608 44.715 C 303.530 44.666,303.549 44.781,303.650 44.969 M277.500 59.058 C 277.087 59.255,276.712 59.463,276.667 59.520 C 276.621 59.577,276.171 59.830,275.667 60.083 C 275.162 60.336,274.551 60.683,274.308 60.855 C 274.064 61.026,273.784 61.167,273.686 61.167 C 273.587 61.167,273.096 61.429,272.595 61.750 C 272.093 62.071,271.623 62.335,271.550 62.336 C 271.348 62.341,269.216 63.442,268.702 63.807 C 268.454 63.984,267.987 64.251,267.667 64.401 C 267.346 64.550,266.896 64.775,266.667 64.901 C 266.438 65.027,265.744 65.382,265.126 65.690 C 264.508 65.998,264.002 66.306,264.001 66.375 C 264.001 66.444,263.869 66.502,263.708 66.505 C 263.548 66.507,262.968 66.807,262.420 67.171 C 261.872 67.535,261.295 67.833,261.138 67.833 C 260.981 67.833,260.812 67.899,260.762 67.980 C 260.712 68.061,259.789 68.567,258.711 69.105 C 257.632 69.643,256.675 70.167,256.583 70.270 C 256.492 70.372,256.173 70.559,255.875 70.685 C 255.577 70.812,255.333 71.021,255.333 71.151 C 255.333 71.879,258.137 76.537,259.361 77.843 C 259.666 78.169,259.797 78.282,259.650 78.093 C 259.143 77.442,259.140 77.340,259.615 76.922 C 259.873 76.696,260.181 76.508,260.300 76.505 C 260.419 76.502,260.968 76.200,261.520 75.833 C 262.072 75.467,262.671 75.167,262.852 75.167 C 263.033 75.167,263.336 75.022,263.526 74.845 C 263.716 74.668,264.294 74.356,264.811 74.152 C 265.327 73.947,265.869 73.679,266.015 73.555 C 266.316 73.300,267.255 72.794,270.000 71.411 C 271.054 70.879,272.116 70.307,272.359 70.139 C 272.602 69.971,272.894 69.833,273.007 69.833 C 273.121 69.833,273.297 69.730,273.398 69.604 C 273.500 69.478,274.146 69.089,274.833 68.741 C 275.521 68.392,276.223 67.989,276.393 67.845 C 276.658 67.622,276.649 67.675,276.335 68.208 C 276.133 68.552,276.005 68.833,276.050 68.833 C 276.096 68.833,276.299 68.552,276.502 68.208 C 277.203 67.017,278.514 65.557,279.754 64.586 C 281.250 63.414,281.243 63.810,279.819 61.227 C 278.329 58.521,278.428 58.614,277.500 59.058 M274.212 75.833 C 274.212 76.246,274.245 76.415,274.284 76.208 C 274.324 76.002,274.324 75.665,274.284 75.458 C 274.245 75.252,274.212 75.421,274.212 75.833 M260.500 79.219 C 260.500 79.248,260.744 79.491,261.042 79.760 L 261.583 80.250 261.094 79.708 C 260.638 79.203,260.500 79.090,260.500 79.219 " stroke="none" fill="#0b346c" fill-rule="evenodd"></path></g></svg>